<?xml version="1.0" encoding="UTF-8"?>
<svg xmlns="http://www.w3.org/2000/svg" xmlns:xlink="http://www.w3.org/1999/xlink" width="32px" height="48px" viewBox="0 0 32 48" version="1.1">
<g id="surface1">
<path style=" stroke:none;fill-rule:evenodd;fill:rgb(0.784314%,45.098039%,29.019608%);fill-opacity:1;" d="M 17.972656 23.652344 C 17.960938 23.929688 17.933594 24.195312 17.890625 24.425781 C 17.847656 24.660156 17.789062 24.851562 17.726562 24.988281 C 17.59375 25.308594 17.480469 25.46875 17.363281 25.628906 C 17.113281 25.949219 16.851562 26.269531 16.578125 26.644531 C 16.285156 27.015625 16.023438 27.386719 15.789062 27.660156 C 15.5 28.03125 15.222656 28.351562 14.960938 28.726562 C 14.761719 29.042969 14.578125 29.457031 14.410156 29.953125 C 14.253906 30.488281 14.113281 31.097656 14 31.769531 C 13.886719 32.515625 13.8125 33.476562 13.8125 34.597656 C 13.8125 36.84375 13.957031 38.550781 14.25 39.617188 C 14.539062 40.738281 15.078125 41.273438 15.878906 41.273438 C 16.691406 41.273438 17.242188 40.6875 17.535156 39.511719 C 17.828125 38.335938 17.972656 36.683594 17.972656 34.546875 Z M 15.878906 0 C 17.304688 0 18.351562 1.015625 19.019531 3.097656 C 19.6875 5.128906 20.023438 7.742188 20.023438 10.835938 L 20.023438 37.214844 C 20.023438 38.28125 19.964844 39.457031 19.863281 40.738281 C 19.761719 42.023438 19.558594 43.195312 19.238281 44.257812 C 18.933594 45.332031 18.511719 46.238281 17.972656 46.933594 C 17.433594 47.628906 16.738281 48 15.878906 48 C 15.019531 48 14.320312 47.628906 13.785156 46.933594 C 13.246094 46.238281 12.824219 45.332031 12.519531 44.257812 C 12.234375 43.300781 12.019531 42.089844 11.894531 40.738281 C 11.792969 39.460938 11.734375 38.285156 11.734375 37.21875 L 11.734375 33 C 11.734375 30.757812 11.894531 28.675781 12.214844 26.855469 C 12.535156 24.988281 12.984375 23.710938 13.566406 22.90625 C 13.855469 22.535156 14.191406 22.160156 14.570312 21.679688 C 14.949219 21.199219 15.296875 20.71875 15.644531 20.292969 C 15.996094 19.863281 16.300781 19.433594 16.5625 19.058594 C 16.71875 18.820312 16.878906 18.609375 17.042969 18.421875 L 17.304688 17.941406 C 17.40625 17.726562 17.507812 17.40625 17.609375 16.980469 C 17.710938 16.554688 17.796875 16.074219 17.871094 15.539062 C 17.949219 14.960938 17.988281 14.320312 17.988281 13.671875 L 17.988281 11.960938 C 17.988281 11.335938 17.953125 10.714844 17.882812 10.144531 C 17.828125 9.503906 17.710938 8.917969 17.550781 8.382812 C 17.390625 7.847656 17.171875 7.421875 16.910156 7.097656 C 16.648438 6.78125 16.300781 6.621094 15.90625 6.621094 C 15.09375 6.621094 14.554688 7.210938 14.265625 8.433594 C 14.015625 9.503906 13.871094 10.839844 13.84375 12.332031 C 13.84375 12.65625 13.769531 12.867188 13.683594 12.867188 L 11.910156 12.976562 C 11.867188 12.976562 11.828125 12.914062 11.796875 12.804688 C 11.765625 12.691406 11.75 12.542969 11.75 12.382812 L 11.75 10.84375 C 11.75 9.34375 11.820312 7.953125 11.980469 6.621094 C 12.140625 5.285156 12.390625 4.164062 12.722656 3.199219 C 13.058594 2.242188 13.496094 1.441406 14.019531 0.90625 C 14.527344 0.265625 15.152344 0 15.878906 0 Z M 15.878906 0 "/>
</g>
</svg>
